<mxfile host="app.diagrams.net" modified="2022-03-22T17:31:06.914Z" agent="5.0 (Windows NT 10.0; Win64; x64) AppleWebKit/537.36 (KHTML, like Gecko) Chrome/99.0.4844.74 Safari/537.36" etag="lqlYms8O1BbHr3UjgQSD" version="16.6.6" type="github">
  <diagram id="oaYQQ9bUMsgETfA-TNZy" name="Page-1">
    <mxGraphModel dx="1038" dy="547" grid="1" gridSize="10" guides="1" tooltips="1" connect="1" arrows="1" fold="1" page="1" pageScale="1" pageWidth="827" pageHeight="1169" math="0" shadow="0">
      <root>
        <mxCell id="0" />
        <mxCell id="1" parent="0" />
        <mxCell id="Chv10t5KYAwx35Hi3Loh-7" style="edgeStyle=orthogonalEdgeStyle;rounded=0;orthogonalLoop=1;jettySize=auto;html=1;exitX=0.5;exitY=1;exitDx=0;exitDy=0;entryX=0.5;entryY=0;entryDx=0;entryDy=0;" edge="1" parent="1" source="Chv10t5KYAwx35Hi3Loh-1" target="Chv10t5KYAwx35Hi3Loh-3">
          <mxGeometry relative="1" as="geometry" />
        </mxCell>
        <mxCell id="Chv10t5KYAwx35Hi3Loh-1" value="preInstantiateSingletons&lt;br&gt;(start)" style="rounded=0;whiteSpace=wrap;html=1;" vertex="1" parent="1">
          <mxGeometry x="40" y="20" width="160" height="40" as="geometry" />
        </mxCell>
        <mxCell id="Chv10t5KYAwx35Hi3Loh-8" style="edgeStyle=orthogonalEdgeStyle;rounded=0;orthogonalLoop=1;jettySize=auto;html=1;exitX=0.5;exitY=1;exitDx=0;exitDy=0;entryX=0.5;entryY=0;entryDx=0;entryDy=0;" edge="1" parent="1" source="Chv10t5KYAwx35Hi3Loh-3" target="Chv10t5KYAwx35Hi3Loh-4">
          <mxGeometry relative="1" as="geometry" />
        </mxCell>
        <mxCell id="Chv10t5KYAwx35Hi3Loh-3" value="getBean" style="rounded=0;whiteSpace=wrap;html=1;" vertex="1" parent="1">
          <mxGeometry x="40" y="90" width="160" height="40" as="geometry" />
        </mxCell>
        <mxCell id="Chv10t5KYAwx35Hi3Loh-33" style="edgeStyle=orthogonalEdgeStyle;rounded=0;orthogonalLoop=1;jettySize=auto;html=1;exitX=0.5;exitY=1;exitDx=0;exitDy=0;entryX=0.5;entryY=0;entryDx=0;entryDy=0;" edge="1" parent="1" source="Chv10t5KYAwx35Hi3Loh-4" target="Chv10t5KYAwx35Hi3Loh-9">
          <mxGeometry relative="1" as="geometry" />
        </mxCell>
        <mxCell id="Chv10t5KYAwx35Hi3Loh-4" value="doGetBean" style="rounded=0;whiteSpace=wrap;html=1;" vertex="1" parent="1">
          <mxGeometry x="40" y="160" width="160" height="40" as="geometry" />
        </mxCell>
        <mxCell id="Chv10t5KYAwx35Hi3Loh-11" style="edgeStyle=orthogonalEdgeStyle;rounded=0;orthogonalLoop=1;jettySize=auto;html=1;exitX=0.5;exitY=1;exitDx=0;exitDy=0;entryX=0.5;entryY=0;entryDx=0;entryDy=0;" edge="1" parent="1" source="Chv10t5KYAwx35Hi3Loh-9" target="Chv10t5KYAwx35Hi3Loh-10">
          <mxGeometry relative="1" as="geometry" />
        </mxCell>
        <mxCell id="Chv10t5KYAwx35Hi3Loh-9" value="getSingleton(beanName)&lt;br&gt;从缓存中获取" style="rounded=0;whiteSpace=wrap;html=1;" vertex="1" parent="1">
          <mxGeometry x="40" y="230" width="160" height="40" as="geometry" />
        </mxCell>
        <mxCell id="Chv10t5KYAwx35Hi3Loh-21" style="edgeStyle=orthogonalEdgeStyle;rounded=0;orthogonalLoop=1;jettySize=auto;html=1;exitX=1;exitY=0.5;exitDx=0;exitDy=0;" edge="1" parent="1" source="Chv10t5KYAwx35Hi3Loh-10" target="Chv10t5KYAwx35Hi3Loh-14">
          <mxGeometry relative="1" as="geometry" />
        </mxCell>
        <mxCell id="Chv10t5KYAwx35Hi3Loh-10" value="getSingleton(String beanName, ObjectFactory&amp;lt;?&amp;gt;singletonFactory)" style="rounded=0;whiteSpace=wrap;html=1;" vertex="1" parent="1">
          <mxGeometry x="40" y="300" width="160" height="40" as="geometry" />
        </mxCell>
        <mxCell id="Chv10t5KYAwx35Hi3Loh-12" value="没有获取到" style="text;html=1;align=center;verticalAlign=middle;resizable=0;points=[];autosize=1;strokeColor=none;fillColor=none;" vertex="1" parent="1">
          <mxGeometry x="110" y="270" width="80" height="20" as="geometry" />
        </mxCell>
        <mxCell id="Chv10t5KYAwx35Hi3Loh-23" style="edgeStyle=orthogonalEdgeStyle;rounded=0;orthogonalLoop=1;jettySize=auto;html=1;exitX=0.5;exitY=1;exitDx=0;exitDy=0;" edge="1" parent="1" source="Chv10t5KYAwx35Hi3Loh-14" target="Chv10t5KYAwx35Hi3Loh-15">
          <mxGeometry relative="1" as="geometry" />
        </mxCell>
        <mxCell id="Chv10t5KYAwx35Hi3Loh-14" value="createBean&lt;br&gt;(创建Bean)" style="rounded=0;whiteSpace=wrap;html=1;" vertex="1" parent="1">
          <mxGeometry x="260" y="380" width="160" height="40" as="geometry" />
        </mxCell>
        <mxCell id="Chv10t5KYAwx35Hi3Loh-24" style="edgeStyle=orthogonalEdgeStyle;rounded=0;orthogonalLoop=1;jettySize=auto;html=1;exitX=0.5;exitY=1;exitDx=0;exitDy=0;" edge="1" parent="1" source="Chv10t5KYAwx35Hi3Loh-15" target="Chv10t5KYAwx35Hi3Loh-16">
          <mxGeometry relative="1" as="geometry" />
        </mxCell>
        <mxCell id="Chv10t5KYAwx35Hi3Loh-15" value="getSingleton(beanName)&lt;br&gt;从缓存中获取" style="rounded=0;whiteSpace=wrap;html=1;" vertex="1" parent="1">
          <mxGeometry x="260" y="460" width="160" height="40" as="geometry" />
        </mxCell>
        <mxCell id="Chv10t5KYAwx35Hi3Loh-34" style="edgeStyle=orthogonalEdgeStyle;rounded=0;orthogonalLoop=1;jettySize=auto;html=1;exitX=0.5;exitY=1;exitDx=0;exitDy=0;entryX=0.5;entryY=0;entryDx=0;entryDy=0;" edge="1" parent="1" source="Chv10t5KYAwx35Hi3Loh-16" target="Chv10t5KYAwx35Hi3Loh-17">
          <mxGeometry relative="1" as="geometry" />
        </mxCell>
        <mxCell id="Chv10t5KYAwx35Hi3Loh-16" value="createBeanInstance&lt;br&gt;实例化" style="rounded=0;whiteSpace=wrap;html=1;" vertex="1" parent="1">
          <mxGeometry x="470" y="540" width="160" height="40" as="geometry" />
        </mxCell>
        <mxCell id="Chv10t5KYAwx35Hi3Loh-35" style="edgeStyle=orthogonalEdgeStyle;rounded=0;orthogonalLoop=1;jettySize=auto;html=1;exitX=0.5;exitY=1;exitDx=0;exitDy=0;entryX=0.5;entryY=0;entryDx=0;entryDy=0;" edge="1" parent="1" source="Chv10t5KYAwx35Hi3Loh-17" target="Chv10t5KYAwx35Hi3Loh-18">
          <mxGeometry relative="1" as="geometry" />
        </mxCell>
        <mxCell id="Chv10t5KYAwx35Hi3Loh-17" value="addSingletonFactory" style="rounded=0;whiteSpace=wrap;html=1;" vertex="1" parent="1">
          <mxGeometry x="470" y="620" width="160" height="40" as="geometry" />
        </mxCell>
        <mxCell id="Chv10t5KYAwx35Hi3Loh-36" style="edgeStyle=orthogonalEdgeStyle;rounded=0;orthogonalLoop=1;jettySize=auto;html=1;exitX=0.5;exitY=1;exitDx=0;exitDy=0;entryX=0.5;entryY=0;entryDx=0;entryDy=0;" edge="1" parent="1" source="Chv10t5KYAwx35Hi3Loh-18" target="Chv10t5KYAwx35Hi3Loh-20">
          <mxGeometry relative="1" as="geometry" />
        </mxCell>
        <mxCell id="Chv10t5KYAwx35Hi3Loh-18" value="populateBean&lt;br&gt;属性赋值" style="rounded=0;whiteSpace=wrap;html=1;" vertex="1" parent="1">
          <mxGeometry x="470" y="700" width="160" height="40" as="geometry" />
        </mxCell>
        <mxCell id="Chv10t5KYAwx35Hi3Loh-26" style="edgeStyle=orthogonalEdgeStyle;rounded=0;orthogonalLoop=1;jettySize=auto;html=1;exitX=0.5;exitY=1;exitDx=0;exitDy=0;" edge="1" parent="1" source="Chv10t5KYAwx35Hi3Loh-20" target="Chv10t5KYAwx35Hi3Loh-25">
          <mxGeometry relative="1" as="geometry" />
        </mxCell>
        <mxCell id="Chv10t5KYAwx35Hi3Loh-20" value="initializeBean&lt;br&gt;初始化" style="rounded=0;whiteSpace=wrap;html=1;" vertex="1" parent="1">
          <mxGeometry x="470" y="780" width="160" height="40" as="geometry" />
        </mxCell>
        <mxCell id="Chv10t5KYAwx35Hi3Loh-22" value="singletonFactory.getObject()" style="text;html=1;align=center;verticalAlign=middle;resizable=0;points=[];autosize=1;strokeColor=none;fillColor=none;" vertex="1" parent="1">
          <mxGeometry x="205" y="300" width="170" height="20" as="geometry" />
        </mxCell>
        <mxCell id="Chv10t5KYAwx35Hi3Loh-28" style="edgeStyle=orthogonalEdgeStyle;rounded=0;orthogonalLoop=1;jettySize=auto;html=1;exitX=0.5;exitY=1;exitDx=0;exitDy=0;entryX=0.5;entryY=0;entryDx=0;entryDy=0;" edge="1" parent="1" source="Chv10t5KYAwx35Hi3Loh-25" target="Chv10t5KYAwx35Hi3Loh-27">
          <mxGeometry relative="1" as="geometry" />
        </mxCell>
        <mxCell id="Chv10t5KYAwx35Hi3Loh-25" value="addSingleton" style="rounded=0;whiteSpace=wrap;html=1;" vertex="1" parent="1">
          <mxGeometry x="40" y="870" width="160" height="40" as="geometry" />
        </mxCell>
        <mxCell id="Chv10t5KYAwx35Hi3Loh-27" value="end" style="rounded=0;whiteSpace=wrap;html=1;" vertex="1" parent="1">
          <mxGeometry x="40" y="950" width="160" height="40" as="geometry" />
        </mxCell>
        <mxCell id="Chv10t5KYAwx35Hi3Loh-31" value="添加到一级缓存并从二级三级缓存中删除" style="text;html=1;align=center;verticalAlign=middle;resizable=0;points=[];autosize=1;strokeColor=none;fillColor=none;" vertex="1" parent="1">
          <mxGeometry x="205" y="880" width="230" height="20" as="geometry" />
        </mxCell>
        <mxCell id="Chv10t5KYAwx35Hi3Loh-32" value="添加三级缓存" style="text;html=1;align=center;verticalAlign=middle;resizable=0;points=[];autosize=1;strokeColor=none;fillColor=none;" vertex="1" parent="1">
          <mxGeometry x="369" y="630" width="90" height="20" as="geometry" />
        </mxCell>
      </root>
    </mxGraphModel>
  </diagram>
</mxfile>
